<svg width="27" height="27" viewBox="0 0 27 27" fill="none" xmlns="http://www.w3.org/2000/svg">
<path d="M5.62586 20.5314C5.83961 20.5314 6.05336 20.4526 6.22211 20.2839L21.9721 4.53387C22.2984 4.20762 22.2984 3.66762 21.9721 3.34137C21.6459 3.01512 21.1059 3.01512 20.7796 3.34137L5.02961 19.0914C4.70336 19.4176 4.70336 19.9576 5.02961 20.2839C5.19836 20.4526 5.41211 20.5314 5.62586 20.5314Z" fill="#FB7602"/>
<path d="M21.375 16.335C21.8363 16.335 22.2188 15.9525 22.2188 15.4913V3.9375C22.2188 3.47625 21.8363 3.09375 21.375 3.09375H9.82125C9.36 3.09375 8.9775 3.47625 8.9775 3.9375C8.9775 4.39875 9.36 4.78125 9.82125 4.78125H20.5312V15.4913C20.5312 15.9525 20.9138 16.335 21.375 16.335Z" fill="#FB7602"/>
</svg>
